<svg aria-hidden="true" style="position: absolute; width: 0; height: 0; overflow: hidden;" version="1.1" xmlns="http://www.w3.org/2000/svg" xmlns:xlink="http://www.w3.org/1999/xlink">
<defs>
<symbol id="plyr-like" viewBox="0 0 24 24">
<title>plyr-like</title>
<path d="M21.5 3.9v0c-1.2-1.2-2.8-1.9-4.5-1.9v0c-1.7 0-3.4 0.7-4.6 1.9 0 0 0 0 0 0l-0.4 0.4-0.4-0.4c-1.2-1.2-2.8-1.9-4.6-1.9-1.7 0-3.3 0.7-4.5 1.9s-2 2.9-2 4.6 0.7 3.4 1.9 4.6l8.8 8.8c0.2 0.2 0.4 0.3 0.7 0.3s0.5-0.1 0.7-0.3l8.8-8.8c2.7-2.5 2.7-6.7 0.1-9.2zM20.1 11.7l-8.1 8.1-8.1-8.1c-1.8-1.8-1.8-4.6 0-6.4 0.8-0.9 2-1.3 3.1-1.3 1.2 0 2.3 0.4 3.2 1.3l1.1 1.1c0.4 0.4 1 0.4 1.4 0l1-1.1c0 0 0 0 0 0 0.9-0.8 2-1.3 3.3-1.3 0 0 0 0 0 0 1.2 0 2.3 0.5 3.2 1.3v0c0.8 0.9 1.3 2 1.3 3.2s-0.5 2.3-1.4 3.2z"></path>
</symbol>
<symbol id="plyr-enter-fullscreen" viewBox="0 0 24 24">
<title>plyr-enter-fullscreen</title>
<path d="M21.9 2.6c-0.1-0.2-0.3-0.4-0.5-0.5-0.1-0.1-0.3-0.1-0.4-0.1h-6c-0.6 0-1 0.4-1 1s0.4 1 1 1h3.6l-5.3 5.3c-0.4 0.4-0.4 1 0 1.4 0.2 0.2 0.5 0.3 0.7 0.3s0.5-0.1 0.7-0.3l5.3-5.3v3.6c0 0.6 0.4 1 1 1s1-0.4 1-1v-6c0-0.1 0-0.3-0.1-0.4z"></path>
<path d="M9.3 13.3l-5.3 5.3v-3.6c0-0.6-0.4-1-1-1s-1 0.4-1 1v6c0 0.1 0 0.3 0.1 0.4 0.1 0.2 0.3 0.4 0.5 0.5 0.1 0.1 0.3 0.1 0.4 0.1h6c0.6 0 1-0.4 1-1s-0.4-1-1-1h-3.6l5.3-5.3c0.4-0.4 0.4-1 0-1.4s-1-0.4-1.4 0z"></path>
</symbol>
<symbol id="plyr-list" viewBox="0 0 24 24">
<title>plyr-list</title>
<path d="M21 11h-18c-0.6 0-1 0.4-1 1s0.4 1 1 1h18c0.6 0 1-0.4 1-1s-0.4-1-1-1z"></path>
<path d="M3 7h18c0.6 0 1-0.4 1-1s-0.4-1-1-1h-18c-0.6 0-1 0.4-1 1s0.4 1 1 1z"></path>
<path d="M21 17h-18c-0.6 0-1 0.4-1 1s0.4 1 1 1h18c0.6 0 1-0.4 1-1s-0.4-1-1-1z"></path>
</symbol>
<symbol id="plyr-exit-fullscreen" viewBox="0 0 24 24">
<title>plyr-exit-fullscreen</title>
<path d="M10.4 13.1c-0.1-0.1-0.3-0.1-0.4-0.1h-6c-0.6 0-1 0.4-1 1s0.4 1 1 1h3.6l-5.3 5.3c-0.4 0.4-0.4 1 0 1.4 0.2 0.2 0.4 0.3 0.7 0.3s0.5-0.1 0.7-0.3l5.3-5.3v3.6c0 0.6 0.4 1 1 1s1-0.4 1-1v-6c0-0.1 0-0.3-0.1-0.4-0.1-0.2-0.3-0.4-0.5-0.5z"></path>
<path d="M21.7 2.3c-0.4-0.4-1-0.4-1.4 0l-5.3 5.3v-3.6c0-0.6-0.4-1-1-1s-1 0.4-1 1v6c0 0.1 0 0.3 0.1 0.4 0.1 0.2 0.3 0.4 0.5 0.5 0.1 0.1 0.3 0.1 0.4 0.1h6c0.6 0 1-0.4 1-1s-0.4-1-1-1h-3.6l5.3-5.3c0.4-0.4 0.4-1 0-1.4z"></path>
</symbol>
<symbol id="plyr-pause" viewBox="0 0 24 24">
<title>plyr-pause</title>
<path d="M10 3h-4c-0.6 0-1 0.4-1 1v16c0 0.6 0.4 1 1 1h4c0.6 0 1-0.4 1-1v-16c0-0.6-0.4-1-1-1zM9 19h-2v-14h2v14z"></path>
<path d="M18 3h-4c-0.6 0-1 0.4-1 1v16c0 0.6 0.4 1 1 1h4c0.6 0 1-0.4 1-1v-16c0-0.6-0.4-1-1-1zM17 19h-2v-14h2v14z"></path>
</symbol>
<symbol id="plyr-play" viewBox="0 0 24 24">
<title>plyr-play</title>
<path d="M21.5 11.2l-14-9c-0.3-0.2-0.7-0.2-1 0-0.3 0.1-0.5 0.4-0.5 0.8v18c0 0.4 0.2 0.7 0.5 0.9 0.2 0.1 0.3 0.1 0.5 0.1s0.4-0.1 0.5-0.2l14-9c0.3-0.2 0.5-0.5 0.5-0.8s-0.2-0.7-0.5-0.8zM8 19.2v-14.4l11.2 7.2-11.2 7.2z"></path>
</symbol>
<symbol id="plyr-repeat" viewBox="0 0 24 24">
<title>plyr-repeat</title>
<path d="M3 12c0.6 0 1-0.4 1-1v-2c0-1.7 1.3-3 3-3h11.6l-2.3 2.3c-0.4 0.4-0.4 1 0 1.4 0.2 0.2 0.4 0.3 0.7 0.3s0.5-0.1 0.7-0.3l4-4c0.1-0.1 0.2-0.2 0.2-0.3 0.1-0.2 0.1-0.5 0-0.8-0.1-0.1-0.1-0.2-0.2-0.3l-4-4c-0.4-0.4-1-0.4-1.4 0s-0.4 1 0 1.4l2.3 2.3h-11.6c-2.8 0-5 2.2-5 5v2c0 0.6 0.4 1 1 1z"></path>
<path d="M21 12c-0.6 0-1 0.4-1 1v2c0 1.7-1.3 3-3 3h-11.6l2.3-2.3c0.4-0.4 0.4-1 0-1.4s-1-0.4-1.4 0l-4 4c-0.1 0.1-0.2 0.2-0.2 0.3-0.1 0.2-0.1 0.5 0 0.8 0.1 0.1 0.1 0.2 0.2 0.3l4 4c0.2 0.2 0.4 0.3 0.7 0.3s0.5-0.1 0.7-0.3c0.4-0.4 0.4-1 0-1.4l-2.3-2.3h11.6c2.8 0 5-2.2 5-5v-2c0-0.6-0.4-1-1-1z"></path>
</symbol>
<symbol id="plyr-settings" viewBox="0 0 24 24">
<title>plyr-settings</title>
<path d="M12 8c-2.2 0-4 1.8-4 4s1.8 4 4 4c2.2 0 4-1.8 4-4s-1.8-4-4-4zM12 14c-1.1 0-2-0.9-2-2s0.9-2 2-2c1.1 0 2 0.9 2 2s-0.9 2-2 2z"></path>
<path d="M20.3 15.4c0.1-0.2 0.3-0.4 0.7-0.4 1.7 0 3-1.3 3-3s-1.3-3-3-3h-0.2c-0.2 0-0.4-0.1-0.5-0.3 0-0.1 0-0.1-0.1-0.2-0.1-0.2-0.1-0.5 0.2-0.8 1.2-1.2 1.2-3.1 0-4.2v0c0 0 0 0 0 0-0.6-0.6-1.3-0.9-2.1-0.9 0 0 0 0 0 0-0.8 0-1.6 0.3-2.2 0.9-0.2 0.2-0.5 0.2-0.7 0.1-0.2 0-0.4-0.3-0.4-0.6 0-1.7-1.3-3-3-3s-3 1.3-3 3v0.2c0 0.2-0.1 0.4-0.3 0.5-0.1 0-0.1 0-0.2 0.1-0.2 0.1-0.5 0-0.8-0.2-1.2-1.2-3.1-1.2-4.2 0-1.2 1.2-1.2 3.1 0.1 4.3 0.2 0.2 0.2 0.5 0.1 0.8-0.1 0.2-0.4 0.4-0.7 0.4-1.7 0-3 1.3-3 3s1.3 3 3 3h0.2c0.3 0 0.5 0.2 0.6 0.4s0.1 0.5-0.2 0.8c-0.6 0.6-0.9 1.3-0.9 2.1s0.3 1.5 0.9 2.1c0 0 0 0 0 0 1.2 1.2 3.1 1.2 4.3-0.1 0.2-0.2 0.5-0.2 0.8-0.1s0.4 0.3 0.4 0.7c0 1.7 1.3 3 3 3s3-1.3 3-3v-0.2c0-0.3 0.2-0.5 0.4-0.6s0.5-0.1 0.8 0.2c1.2 1.2 3.1 1.2 4.2 0 1.2-1.2 1.2-3.1-0.1-4.3-0.1-0.2-0.2-0.5-0.1-0.7 0 0 0 0 0 0zM18.5 14.6c-0.4 1-0.2 2.1 0.6 3 0.2 0.2 0.3 0.4 0.3 0.7s-0.1 0.5-0.3 0.7c-0.2 0.2-0.4 0.3-0.7 0.3 0 0 0 0 0 0-0.3 0-0.5-0.1-0.8-0.4-0.8-0.8-1.9-1-2.9-0.5-1 0.4-1.6 1.4-1.6 2.4v0.2c0 0.6-0.4 1-1 1s-1-0.4-1-1c0 0 0-0.1 0-0.1 0-1.1-0.7-2-1.7-2.4-0.3-0.2-0.7-0.2-1.1-0.2-0.7 0-1.4 0.3-1.9 0.8-0.4 0.4-1 0.4-1.4 0 0 0 0 0 0 0v0c-0.2-0.2-0.3-0.4-0.3-0.7s0.1-0.5 0.4-0.8c0.8-0.8 1-1.9 0.5-2.9-0.4-1-1.4-1.6-2.4-1.6h-0.2c-0.6 0-1-0.4-1-1s0.4-1 1-1c0 0 0.1 0 0.1 0 1.1 0 2-0.7 2.4-1.7s0.2-2.1-0.6-3c-0.4-0.4-0.4-1 0-1.4s1-0.4 1.5 0.1c0.7 0.7 1.8 0.9 2.7 0.6 0.1 0 0.2 0 0.3-0.1 1-0.4 1.6-1.4 1.6-2.4v-0.2c0-0.6 0.4-1 1-1s1 0.4 1 1.1c0 1.1 0.6 2 1.6 2.4s2.1 0.2 3-0.6c0.2-0.2 0.4-0.3 0.7-0.3v0c0.3 0 0.5 0.1 0.7 0.3 0 0 0 0 0 0 0.4 0.4 0.4 1-0.1 1.5-0.7 0.7-0.9 1.8-0.6 2.7 0 0.1 0 0.2 0.1 0.3 0.4 1 1.4 1.6 2.4 1.6h0.2c0.6 0 1 0.4 1 1s-0.4 1-1.1 1c-1 0-2 0.6-2.4 1.6z"></path>
</symbol>
<symbol id="plyr-shuffle" viewBox="0 0 24 24">
<title>plyr-shuffle</title>
<path d="M21.9 2.6c-0.1-0.2-0.3-0.4-0.5-0.5-0.1-0.1-0.3-0.1-0.4-0.1h-5c-0.6 0-1 0.4-1 1s0.4 1 1 1h2.6l-15.3 15.3c-0.4 0.4-0.4 1 0 1.4 0.2 0.2 0.4 0.3 0.7 0.3s0.5-0.1 0.7-0.3l15.3-15.3v2.6c0 0.6 0.4 1 1 1s1-0.4 1-1v-5c0-0.1 0-0.3-0.1-0.4z"></path>
<path d="M21 15c-0.6 0-1 0.4-1 1v2.6l-4.3-4.3c-0.4-0.4-1-0.4-1.4 0s-0.4 1 0 1.4l4.3 4.3h-2.6c-0.6 0-1 0.4-1 1s0.4 1 1 1h5c0.1 0 0.3 0 0.4-0.1 0.2-0.1 0.4-0.3 0.5-0.5 0.1-0.1 0.1-0.3 0.1-0.4v-5c0-0.6-0.4-1-1-1z"></path>
<path d="M8.3 9.7c0.2 0.2 0.4 0.3 0.7 0.3s0.5-0.1 0.7-0.3c0.4-0.4 0.4-1 0-1.4l-5-5c-0.4-0.4-1-0.4-1.4 0s-0.4 1 0 1.4l5 5z"></path>
</symbol>
<symbol id="plyr-prev" viewBox="0 0 24 24">
<title>plyr-prev</title>
<path d="M19.4 3.1c-0.3-0.2-0.8-0.1-1.1 0.1l-10 8c-0.2 0.2-0.3 0.5-0.3 0.8s0.1 0.6 0.4 0.8l10 8c0.2 0.1 0.4 0.2 0.6 0.2 0.1 0 0.3 0 0.4-0.1 0.3-0.2 0.6-0.5 0.6-0.9v-16c0-0.4-0.2-0.7-0.6-0.9zM18 17.9l-7.4-5.9 7.4-5.9v11.8z"></path>
<path d="M5 4c-0.6 0-1 0.4-1 1v14c0 0.6 0.4 1 1 1s1-0.4 1-1v-14c0-0.6-0.4-1-1-1z"></path>
</symbol>
<symbol id="plyr-next" viewBox="0 0 24 24">
<title>plyr-next</title>
<path d="M5.6 3.2c-0.3-0.2-0.7-0.3-1-0.1-0.4 0.2-0.6 0.5-0.6 0.9v16c0 0.4 0.2 0.7 0.6 0.9 0.1 0.1 0.3 0.1 0.4 0.1 0.2 0 0.4-0.1 0.6-0.2l10-8c0.2-0.2 0.4-0.5 0.4-0.8s-0.1-0.6-0.4-0.8l-10-8zM6 17.9v-11.8l7.4 5.9-7.4 5.9z"></path>
<path d="M19 4c-0.6 0-1 0.4-1 1v14c0 0.6 0.4 1 1 1s1-0.4 1-1v-14c0-0.6-0.4-1-1-1z"></path>
</symbol>
<symbol id="plyr-volume" viewBox="0 0 24 24">
<title>plyr-volume</title>
<path d="M11.4 4.1c-0.3-0.2-0.8-0.1-1.1 0.1l-4.7 3.8h-3.6c-0.6 0-1 0.4-1 1v6c0 0.6 0.4 1 1 1h3.6l4.7 3.8c0.2 0.1 0.4 0.2 0.6 0.2 0.1 0 0.3 0 0.4-0.1 0.3-0.2 0.6-0.5 0.6-0.9v-14c0.1-0.4-0.1-0.7-0.5-0.9zM10 16.9l-3.4-2.7c-0.2-0.1-0.4-0.2-0.6-0.2h-3v-4h3c0.2 0 0.4-0.1 0.6-0.2l3.4-2.7v9.8z"></path>
<path d="M14.8 7.8c-0.4 0.4-0.4 1 0 1.4 1.6 1.6 1.6 4.1 0 5.7-0.4 0.4-0.4 1 0 1.4 0.2 0.2 0.5 0.3 0.7 0.3s0.5-0.1 0.7-0.3c2.3-2.3 2.3-6.1 0-8.5-0.3-0.4-1-0.4-1.4 0z"></path>
<path d="M19.8 4.2c-0.4-0.4-1-0.4-1.4 0s-0.4 1 0 1.4c3.5 3.5 3.5 9.2 0 12.7-0.4 0.4-0.4 1 0 1.4 0.2 0.2 0.5 0.3 0.7 0.3s0.5-0.1 0.7-0.3c4.3-4.2 4.3-11.2 0-15.5z"></path>
</symbol>
<symbol id="plyr-muted" viewBox="0 0 24 24">
<title>plyr-muted</title>
<path d="M11.4 4.1c-0.3-0.2-0.8-0.1-1.1 0.1l-4.7 3.8h-3.6c-0.6 0-1 0.4-1 1v6c0 0.6 0.4 1 1 1h3.6l4.7 3.8c0.2 0.1 0.4 0.2 0.6 0.2 0.1 0 0.3 0 0.4-0.1 0.3-0.2 0.6-0.5 0.6-0.9v-14c0.1-0.4-0.1-0.7-0.5-0.9zM10 16.9l-3.4-2.7c-0.2-0.1-0.4-0.2-0.6-0.2h-3v-4h3c0.2 0 0.4-0.1 0.6-0.2l3.4-2.7v9.8z"></path>
<path d="M21.4 12l2.3-2.3c0.4-0.4 0.4-1 0-1.4s-1-0.4-1.4 0l-2.3 2.3-2.3-2.3c-0.4-0.4-1-0.4-1.4 0s-0.4 1 0 1.4l2.3 2.3-2.3 2.3c-0.4 0.4-0.4 1 0 1.4 0.2 0.2 0.5 0.3 0.7 0.3s0.5-0.1 0.7-0.3l2.3-2.3 2.3 2.3c0.2 0.2 0.5 0.3 0.7 0.3s0.5-0.1 0.7-0.3c0.4-0.4 0.4-1 0-1.4l-2.3-2.3z"></path>
<symbol id="plyr-custom" viewBox="0 0 24 24">
<title>plyr-custom</title>
<path d="M54.818,200.999c-15.23,0-28.171,5.327-38.832,15.987C5.33,227.642,0,240.583,0,255.813c0,15.223,5.33,28.172,15.99,38.83c10.66,10.656,23.604,15.984,38.832,15.984c15.225,0,28.167-5.328,38.828-15.984c10.657-10.657,15.987-23.606,15.987-38.83c0-15.23-5.33-28.171-15.99-38.828C82.989,206.329,70.046,200.999,54.818,200.999z"/>
<path d="M54.821,54.817c-15.23,0-28.171,5.33-38.832,15.987C5.333,81.464,0.003,94.405,0.003,109.632c0,15.229,5.327,28.171,15.986,38.831c10.66,10.657,23.604,15.985,38.832,15.985c15.225,0,28.167-5.329,38.828-15.985c10.657-10.66,15.987-23.603,15.987-38.831c0-15.227-5.33-28.168-15.987-38.828C82.993,60.147,70.051,54.817,54.821,54.817z"/>
<path d="M54.821,347.18c-15.23,0-28.175,5.325-38.832,15.981C5.333,373.824,0.003,386.767,0.003,401.989c0,15.235,5.327,28.171,15.986,38.834c10.66,10.657,23.604,15.985,38.832,15.985c15.225,0,28.167-5.328,38.828-15.985c10.657-10.663,15.987-23.599,15.987-38.834c0-15.223-5.33-28.172-15.987-38.828C82.993,352.505,70.051,347.18,54.821,347.18z"/>
<path d="M508.917,75.8c-1.813-1.803-3.949-2.708-6.427-2.708H155.313c-2.473,0-4.615,0.902-6.423,2.708c-1.807,1.812-2.712,3.949-2.712,6.423v54.821c0,2.475,0.905,4.611,2.712,6.424c1.809,1.805,3.951,2.708,6.423,2.708H502.49c2.478,0,4.616-0.9,6.427-2.708c1.81-1.812,2.71-3.949,2.71-6.424V82.224C511.626,79.75,510.723,77.609,508.917,75.8z"/>
<path d="M502.49,219.271H155.313c-2.473,0-4.615,0.9-6.423,2.712c-1.807,1.807-2.712,3.949-2.712,6.423v54.819c0,2.472,0.905,4.613,2.712,6.421c1.809,1.813,3.951,2.714,6.423,2.714H502.49c2.478,0,4.616-0.9,6.427-2.714c1.81-1.808,2.71-3.949,2.71-6.421v-54.819c0-2.474-0.903-4.62-2.71-6.423C507.103,220.175,504.967,219.271,502.49,219.271z"/>
<path d="M502.49,365.447H155.313c-2.473,0-4.615,0.903-6.423,2.714c-1.807,1.81-2.712,3.949-2.712,6.42V429.4c0,2.478,0.905,4.616,2.712,6.427c1.809,1.807,3.951,2.707,6.423,2.707H502.49c2.478,0,4.616-0.9,6.427-2.707c1.81-1.811,2.71-3.949,2.71-6.427v-54.819c0-2.471-0.903-4.617-2.71-6.42C507.103,366.357,504.967,365.447,502.49,365.447z"/>
</symbol>
</defs>
</svg>

